<?xml version="1.0" encoding="UTF-8"?>
<svg width="1536" height="1536" version="1.1" xmlns="http://www.w3.org/2000/svg"><path d="m159.05 624.01 467.21 498.71-224.98-498.71zm608.95 578.95 261.73-578.95h-523.46zm-364.47-674.94 152.99-287.98h-196.48l-215.98 287.98zm506.21 594.7 467.21-498.71h-242.23zm-397.47-594.7h511.46l-152.99-287.98h-205.48zm620.2 0h259.48l-215.98-287.98h-196.48zm105.74-364.47 287.98 383.97c14.249 17.999 12.749 44.246-2.9997 61.495l-719.94 767.94c-8.9993 9.7492-21.748 14.999-35.247 14.999s-26.248-5.2496-35.247-14.999l-719.94-767.94c-15.749-17.249-17.249-43.496-2.9998-61.495l287.98-383.97c8.9993-12.749 23.248-19.498 38.247-19.498h863.93c14.999 0 29.248 6.7494 38.247 19.498z" stroke-width=".74994"/></svg>
