<?xml version="1.0" encoding="UTF-8"?>
<svg enable-background="new 0 0 24 24" version="1.1" viewBox="0 0 24 24" xmlns="http://www.w3.org/2000/svg"><style type="text/css">.st0{fill-rule:evenodd;clip-rule:evenodd;}</style><path class="st0" d="m8.7 10.4v-4.8h3.1c1.2 0 2.2 0.2 3 0.5s1.4 0.8 1.8 1.4c0.5 0.6 0.8 1.3 0.9 2 0.2 0.8 0.2 1.6 0.2 2.5 0 0.8-0.1 1.7-0.2 2.5-0.2 0.8-0.5 1.5-0.9 2-0.4 0.6-1 1-1.8 1.4-0.8 0.3-1.8 0.5-3 0.5h-3.1v-5.4h4.9v-2.6h-4.9zm-3.1 2.6v8h7.4c1.4 0 2.5-0.2 3.5-0.7s1.8-1.1 2.4-1.9 1.1-1.8 1.4-2.9 0.5-2.3 0.5-3.5-0.1-2.4-0.5-3.5c-0.3-1.1-0.8-2-1.4-2.9-0.6-0.8-1.4-1.5-2.4-1.9-1-0.5-2.2-0.7-3.5-0.7h-7.4v7.4h-1.7v2.6h1.7z"/></svg>
