<svg class="tabler" width="24" height="24" fill="none" stroke="currentColor" stroke-linecap="round" stroke-linejoin="round" stroke-width="1.5" version="1.1" viewBox="0 0 24 24" xmlns="http://www.w3.org/2000/svg"><path d="m24 0v24h-24v-24z" fill="none" stroke="none"/><path d="m11 3a1 1 0 0 1 1 1v4a1 1 0 0 1-1 1h-6a1 1 0 0 1-1-1v-4a1 1 0 0 1 1-1z"/><path d="m15 15a1 1 0 0 1 1 1v4a1 1 0 0 1-1 1h-10a1 1 0 0 1-1-1v-4a1 1 0 0 1 1-1z"/><path d="m19 9a1 1 0 0 1 1 1v4a1 1 0 0 1-1 1h-14a1 1 0 0 1-1-1v-4a1 1 0 0 1 1-1z"/><path d="m4 4v14"/></svg>
