<?xml version="1.0" encoding="UTF-8"?>
<svg data-name="Layer 1" viewBox="0 0 24 24" xmlns="http://www.w3.org/2000/svg"><defs><style>.cls-1,.cls-2{fill:none;}.cls-2{stroke:#000;stroke-linecap:round;stroke-linejoin:round;stroke-width:1.5px;}</style></defs><path class="cls-1" d="M0,0H24V24H0Z"/><path class="cls-2" d="M9.7,10.85H5.1A1.09,1.09,0,0,1,4,9.7V6.25A1.09,1.09,0,0,1,5.1,5.1H8.55A1.09,1.09,0,0,1,9.7,6.25v6.9c0,3.1-1.49,4.94-4.6,5.75"/><path class="cls-2" d="M20,10.85h-4.6A1.09,1.09,0,0,1,14.3,9.7V6.25A1.09,1.09,0,0,1,15.45,5.1H18.9A1.09,1.09,0,0,1,20,6.25v6.9c0,3.1-1.49,4.94-4.6,5.75"/></svg>
